Coordinates
version=1
nRows=15
nColumns=42
inDegrees=yes

Units are S.I. units (second, meters, Newtons, ...)
If the header above contains a line with 'inDegrees', this indicates whether rotational values are in degrees (yes) or radians (no).

endheader
time	pelvis_tilt	pelvis_list	pelvis_rotation	pelvis_tx	pelvis_ty	pelvis_tz	hip_flexion_r	hip_adduction_r	hip_rotation_r	knee_angle_r	knee_adduction_r	knee_angle_r_beta	ankle_angle_r	subtalar_angle_r	mtp_angle_r	hip_flexion_l	hip_adduction_l	hip_rotation_l	knee_angle_l	knee_adduction_l	knee_angle_l_beta	ankle_angle_l	subtalar_angle_l	mtp_angle_l	lumbar_extension	lumbar_bending	lumbar_rotation	arm_flex_r	arm_add_r	arm_rot_r	elbow_flex_r	pro_sup_r	wrist_flex_r	wrist_dev_r	arm_flex_l	arm_add_l	arm_rot_l	elbow_flex_l	pro_sup_l	wrist_flex_l	wrist_dev_l
      0.40000000	      5.82809969	      2.30254560	     -2.35602147	     -1.55779054	      0.88756138	      0.17257204	     10.53186456	     -7.20152506	     -2.04208313	     72.20268960	      3.89965206	      1.26017466	     -1.64618397	    -11.47057481	     -9.42173169	     15.36210541	      3.35380881	    -27.13018508	     37.64078860	     -6.19629404	      0.65695569	     22.26579349	     26.36772196	     -9.42173169	    -17.54028200	     -1.47399023	     -0.51702140	      3.08010400	     -8.66749523	    -13.78632478	     30.50106496	     90.00000001	      0.00000000	      0.00000000	     -5.22139416	     -6.66691023	    -26.46071836	     38.64343229	     90.00000001	      0.00000000	      0.00000000
      0.41000000	      5.96100902	      2.25990789	     -2.43712753	     -1.55044033	      0.88839387	      0.17247110	     12.29639750	     -6.97024932	     -2.11831026	     73.15552875	      3.09886492	      1.27680484	     -0.11677399	    -12.62608053	     -9.38948226	     14.36632378	      3.33055005	    -27.06557384	     37.23011443	     -5.92486935	      0.64978808	     22.66848145	     26.47284129	     -9.38948226	    -17.82839175	     -1.40942213	     -0.71981611	      2.95246988	     -8.77504622	    -14.02932926	     30.21256535	     90.00000001	      0.00000000	      0.00000000	     -4.88660534	     -6.81177793	    -26.19671572	     38.87919911	     90.00000001	      0.00000000	      0.00000000
      0.42000000	      6.09790239	      2.21816562	     -2.41870963	     -1.54315388	      0.88921033	      0.17224289	     13.97562779	     -6.75216509	     -1.95573290	     73.80357164	      2.69926135	      1.28811532	      0.91630434	    -14.26518185	     -9.33517030	     13.44069337	      3.36052004	    -27.09205897	     36.86575163	     -5.88107491	      0.64342875	     23.15461908	     27.02448265	     -9.33517030	    -18.12580012	     -1.30897716	     -1.05113323	      2.90817400	     -8.77668596	    -14.82860641	     29.90630095	     90.00000001	      0.00000000	      0.00000000	     -4.66376977	     -7.07073013	    -25.48187659	     39.13077658	     90.00000001	      0.00000000	      0.00000000
      0.43000000	      6.21244965	      2.09950605	     -2.43556277	     -1.53594251	      0.89006156	      0.17223735	     15.62147086	     -6.34938473	     -1.90349754	     74.10264148	      2.14941476	      1.29333508	      1.96445968	    -14.89010652	     -9.31125043	     12.46729289	      3.23849917	    -26.88355238	     36.45734610	     -5.53905025	      0.63630073	     23.40904296	     27.04581294	     -9.31125043	    -18.39855884	     -1.16653849	     -1.28867011	      2.74277469	     -8.86344237	    -15.04928454	     29.77177685	     90.00000001	      0.00000000	      0.00000000	     -4.28570754	     -7.23236268	    -25.20877330	     39.31883685	     90.00000001	      0.00000000	      0.00000000
      0.44000000	      6.33295084	      2.01755923	     -2.33738955	     -1.52872295	      0.89090776	      0.17203457	     17.13246937	     -6.03650994	     -1.87442685	     74.06872742	      1.75814617	      1.29274317	      3.01437153	    -15.71772314	     -9.28670805	     11.51716304	      3.22513957	    -26.61670453	     36.02640519	     -5.31104484	      0.62877939	     23.82008106	     27.20709762	     -9.28670805	    -18.67691919	     -1.02398006	     -1.61964124	      2.59855499	     -8.92276132	    -15.40556045	     29.62028337	     90.00000001	      0.00000000	      0.00000000	     -3.93387829	     -7.45411348	    -24.76646344	     39.46714495	     90.00000001	      0.00000000	      0.00000000
      0.45000000	      6.44686216	      1.88582905	     -2.17202130	     -1.52149076	      0.89173606	      0.17169594	     18.52013448	     -5.71613636	     -1.82782063	     73.69066877	      1.54892244	      1.28614480	      3.73517224	    -16.23172673	     -9.26186341	     10.61346600	      3.19866426	    -26.28357820	     35.64065298	     -5.15796036	      0.62204674	     24.18109502	     27.35267947	     -9.26186341	    -18.93746224	     -0.79307415	     -2.02077388	      2.42400086	     -8.97542373	    -15.81092684	     29.53654014	     90.00000001	      0.00000000	      0.00000000	     -3.61885851	     -7.67567269	    -24.25640973	     39.60086044	     90.00000001	      0.00000000	      0.00000000
      0.46000000	      6.63179201	      1.73579568	     -1.94295449	     -1.51437699	      0.89269042	      0.17132809	     19.70214879	     -5.44309656	     -1.84053101	     72.97306640	      1.46423140	      1.27362027	      4.28142052	    -16.65743668	     -9.23079433	      9.67732586	      3.15026042	    -25.86430384	     35.30497909	     -5.01152938	      0.61618813	     24.63683290	     27.62873912	     -9.23079433	    -19.30974688	     -0.53997221	     -2.40438359	      2.27874751	     -8.98749642	    -16.43807497	     29.47646799	     90.00000001	      0.00000000	      0.00000000	     -3.24691221	     -7.95532948	    -23.50504105	     39.70996776	     90.00000001	      0.00000000	      0.00000000
      0.47000000	      6.69984560	      1.54532890	     -1.67641450	     -1.50727180	      0.89339801	      0.17090389	     20.90309629	     -5.14868334	     -1.90861524	     71.94977810	      1.43589119	      1.25576052	      4.65803547	    -16.63801392	     -9.20101978	      8.91497299	      3.07069012	    -25.48902008	     34.99993572	     -4.96419541	      0.61086412	     24.92671789	     27.73952373	     -9.20101978	    -19.52938163	     -0.21965075	     -2.83899511	      2.08834292	     -9.03470506	    -16.94745599	     29.50381952	     90.00000001	      0.00000000	      0.00000000	     -2.91185681	     -8.19836739	    -22.90811924	     39.82602510	     90.00000001	      0.00000000	      0.00000000
      0.48000000	      6.85585181	      1.35203255	     -1.30332654	     -1.50007572	      0.89425852	      0.17036071	     21.82483582	     -4.90274922	     -2.11583242	     70.56725989	      1.40992768	      1.23163103	      5.01316362	    -16.52225491	     -9.16251905	      8.05959674	      2.94103230	    -25.08511113	     34.73751240	     -4.85121783	      0.60628397	     25.37814189	     28.03323776	     -9.16251905	    -19.83179736	      0.12669453	     -3.29627422	      1.85664513	     -9.01266664	    -17.67581093	     29.51518630	     90.00000001	      0.00000000	      0.00000000	     -2.55183815	     -8.45868651	    -22.09072751	     39.85819862	     90.00000001	      0.00000000	      0.00000000
      0.49000000	      6.89498484	      1.13757267	     -0.95447554	     -1.49297025	      0.89483857	      0.16991419	     22.80491016	     -4.68674380	     -2.39503072	     68.93806122	      1.42160037	      1.20319615	      5.32211310	    -16.05926293	     -9.12234328	      7.38228553	      2.80749735	    -24.77935905	     34.48988363	     -4.89173184	      0.60196203	     25.69720162	     28.28413967	     -9.12234328	    -20.00487734	      0.48882521	     -3.72970266	      1.62619998	     -9.01204156	    -18.29315327	     29.57999159	     90.00000001	      0.00000000	      0.00000000	     -2.21611233	     -8.68716804	    -21.44084600	     39.92638062	     90.00000001	      0.00000000	      0.00000000
      0.50000000	      6.71848716	      1.17599926	     -0.71710336	     -1.48615947	      0.89471417	      0.16960947	     24.15251925	     -4.78276254	     -2.46273353	     67.38067947	      1.53113859	      1.17601471	      5.43097403	    -15.36431575	     -9.10295328	      7.05093853	      2.84916151	    -24.67654080	     34.45282747	     -4.82986117	      0.60131528	     25.66041752	     28.01946808	     -9.10295328	    -19.96668623	      0.50618238	     -4.11607125	      1.33791140	     -9.01712416	    -18.36156716	     29.69823233	     90.00000001	      0.00000000	      0.00000000	     -1.86800859	     -8.84509277	    -21.28685415	     40.18020774	     90.00000001	      0.00000000	      0.00000000
      0.51000000	      6.82613998	      0.77569333	     -0.18122758	     -1.47880719	      0.89541528	      0.16884486	     24.63831244	     -4.47094428	     -2.85288128	     65.00447877	      1.78225539	      1.13454218	      6.05227748	    -14.53505452	     -9.06843481	      6.26622455	      2.64405726	    -24.20047034	     34.06262623	     -5.11347542	      0.59450498	     26.30904481	     28.57879584	     -9.06843481	    -20.15475847	      1.16174521	     -4.62247452	      1.02962868	     -9.04977255	    -18.88788630	     29.75984077	     90.00000001	      0.00000000	      0.00000000	     -1.51602250	     -8.99675340	    -20.58749624	     40.02387362	     90.00000001	      0.00000000	      0.00000000
      0.52000000	      6.99174007	      0.55945680	      0.16130452	     -1.47142856	      0.89593769	      0.16864922	     25.11107686	     -4.29790245	     -3.63988729	     62.57551938	      1.49895285	      1.09214884	      6.82027184	    -12.65044312	     -9.00744967	      5.39925545	      2.26115520	    -24.46389418	     33.84138303	     -5.11098712	      0.59064356	     26.81668773	     29.91594891	     -9.00744967	    -20.43296192	      1.49250800	     -4.91260318	      0.76902446	     -8.97619007	    -19.80116559	     29.84075914	     90.00000001	      0.00000000	      0.00000000	     -1.14711416	     -9.27805744	    -19.74726470	     40.03771273	     90.00000001	      0.00000000	      0.00000000
      0.53000000	      6.95202667	      0.45233510	      0.51558895	     -1.46408002	      0.89589569	      0.16831627	     25.79744315	     -4.32239330	     -4.25279636	     60.10023630	      1.44543669	      1.04894700	      7.78693805	    -10.21409236	     -8.92918814	      4.82273481	      2.11649382	    -24.74306095	     33.61440699	     -5.34719761	      0.58668208	     27.15493054	     31.00839506	     -8.92918814	    -20.46116727	      1.71146864	     -5.26241790	      0.44164465	     -8.90588141	    -20.40627719	     29.90786483	     90.00000001	      0.00000000	      0.00000000	     -0.82994975	     -9.42966090	    -19.32877875	     40.11854129	     90.00000001	      0.00000000	      0.00000000
      0.54000000	      6.78834930	      0.38501466	      0.89739765	     -1.45705929	      0.89552568	      0.16793573	     26.58553182	     -4.43052007	     -4.33699490	     57.55458176	      1.94408871	      1.00451695	      8.13413824	     -8.93034627	     -8.89714620	      4.42578306	      2.06143263	    -24.60718474	     33.45072240	     -5.44158915	      0.58382524	     27.43503588	     31.11701853	     -8.89714620	    -20.39440050	      1.89971761	     -5.65056739	      0.11385101	     -8.89948346	    -20.53489135	     29.99383559	     90.00000001	      0.00000000	      0.00000000	     -0.44865082	     -9.55827306	    -19.10310909	     40.18754338	     90.00000001	      0.00000000	      0.00000000
